<?xml version="1.0" encoding="UTF-8" standalone="no"?>
<svg
   width="1200pt"
   height="1200pt"
   version="1.1"
   viewBox="0 0 1200 1200"
   id="svg1"
   sodipodi:docname="snix-logo.svg"
   inkscape:version="1.4 (e7c3feb100, 2024-10-09)"
   xmlns:inkscape="http://www.inkscape.org/namespaces/inkscape"
   xmlns:sodipodi="http://sodipodi.sourceforge.net/DTD/sodipodi-0.dtd"
   xmlns="http://www.w3.org/2000/svg"
   xmlns:svg="http://www.w3.org/2000/svg">
  <defs
     id="defs1" />
  <sodipodi:namedview
     id="namedview1"
     pagecolor="#ffffff"
     bordercolor="#000000"
     borderopacity="0.25"
     inkscape:showpageshadow="2"
     inkscape:pageopacity="0.0"
     inkscape:pagecheckerboard="0"
     inkscape:deskcolor="#d1d1d1"
     inkscape:document-units="pt"
     inkscape:zoom="0.57290673"
     inkscape:cx="824.74158"
     inkscape:cy="780.23171"
     inkscape:window-width="1320"
     inkscape:window-height="346"
     inkscape:window-x="45"
     inkscape:window-y="29"
     inkscape:window-maximized="0"
     inkscape:current-layer="svg1" />
  <path
     d="M 1016.7023,455.30233 H 183.42233 l -90.237995,-15.961 c -3.8398,-0.71875 -7.9219,0.35938 -10.922,2.8789 -3.0001,2.51952 -4.8008,6.3594 -4.8008,10.199 v 295.08 c 0,3.9609 1.8008,7.6797 4.8008,10.199 3,2.5195 7.0781,3.6016 10.922,2.8789 l 90.237995,-15.961 h 833.27997 l 90.238,15.961 c 3.8398,0.71875 7.9219,-0.35938 10.922,-2.8789 3,-2.5195 4.8008,-6.2383 4.8008,-10.199 v -294.96 c 0,-3.9609 -1.8008,-7.6797 -4.8008,-10.199 -3,-2.5195 -7.0781,-3.6016 -10.922,-2.8789 z m -9.9609,262.68 h -31.80097 v -235.92 h 31.80097 z m -813.35997,-235.92 h 31.801 v 235.92 h -31.801 z m 54.121,235.92 v -31.68 h 503.64 c 4.9219,0 8.8789,-3.9609 8.8789,-8.8789 0,-4.9219 -3.9609,-9.0039 -8.8828,-9.0039 h -503.64 v -186.36 h 705.12 l -0.004,235.92 z m -143.28,-31.68 h 32.281 c 4.9219,0 8.8789,-3.9609 8.8789,-8.8789 0,-4.9219 -3.9609,-8.8789 -8.8789,-8.8789 l -32.281,-0.004 v -59.52 h 32.281 c 4.9219,0 8.8789,-3.9609 8.8789,-8.8789 0,-4.9219 -3.9609,-8.8789 -8.8789,-8.8789 l -32.281,-0.004 v -59.52 h 32.281 c 4.9219,0 8.8789,-3.9609 8.8789,-8.8789 0,-4.9219 -3.9609,-8.8789 -8.8789,-8.8789 h -32.281 v -45.238 l 66.84,11.762 v 239.28 l -66.84,11.762 z m 991.67997,-172.56 h -39.48 c -4.9219,0 -8.8789,3.9609 -8.8789,8.8789 0,4.9219 3.9609,8.8789 8.8789,8.8789 h 39.48 v 59.52 h -39.48 c -4.9219,0 -8.8789,3.9609 -8.8789,8.8789 0,4.9219 3.9609,8.8789 8.8789,8.8789 h 39.48 v 59.645 h -39.48 c -4.9219,0 -8.8789,3.9609 -8.8789,8.8789 0,4.9219 3.9609,8.8789 8.8789,8.8789 h 39.48 v 45.238 l -66.84,-11.762 v -239.4 l 66.84,-11.762 z"
     id="path1" />
  <path
     style="font-weight:bold;font-size:174.083px;font-family:'ComicShannsMono Nerd Font Propo';-inkscape-font-specification:'ComicShannsMono Nerd Font Propo Bold';letter-spacing:6.885px;stroke-width:5.93464"
     d="m 474.40628,538.76714 c 1.39266,0.34817 2.95941,0.52225 4.70024,0.52225 0.52225,0 1.21858,0 1.91491,0 4.178,-0.34816 6.09291,-4.17799 6.09291,-7.48557 0,-3.82982 -2.26308,-8.1819 -6.96332,-9.92273 -5.39657,-1.91491 -19.14913,-2.61124 -23.32712,-2.61124 -30.81269,0 -49.09141,16.88605 -49.09141,36.03518 0,14.10072 13.75256,24.02345 26.46062,25.24203 32.37944,3.1335 34.12027,13.92664 34.12027,21.41221 0,12.88214 -16.53789,21.76037 -28.7237,21.76037 -10.96723,0 -16.18972,-6.0929 -17.93055,-8.87823 -2.08899,-2.95941 -4.35207,-5.57065 -8.1819,-5.57065 -1.74083,0 -3.48166,0.52224 -5.57065,1.39266 -2.089,0.87041 -5.04841,3.48166 -5.04841,8.00782 0,5.91882 4.70024,12.53397 14.44889,17.93055 6.0929,3.48166 13.40439,5.0484 21.76037,5.0484 24.71979,0 49.78774,-14.79705 49.78774,-41.60583 0,-30.29044 -29.94228,-34.46844 -41.43175,-34.99068 -18.10463,-0.87042 -18.97505,-10.96723 -18.97505,-12.88215 0,-9.92273 14.44889,-15.66747 27.15695,-15.66747 8.00782,0 10.61906,0.17409 18.80096,2.26308 z m 50.40562,31.33494 c 0,-3.82982 0,-7.65965 -0.17408,-11.31539 13.40439,29.94227 37.07967,66.67378 41.43175,76.07427 2.08899,4.17799 7.65965,4.52615 9.57456,4.52615 2.26308,0 4.35208,-0.34816 6.44107,-1.04449 5.39658,-1.56675 6.44107,-4.35208 7.13741,-22.45671 0.87041,-18.80096 1.04449,-37.77601 1.04449,-51.1804 0,-8.00782 -0.17408,-13.92664 -0.17408,-16.71197 -0.17408,-13.40439 -0.17408,-18.97504 -1.74083,-22.4567 -1.91491,-3.1335 -6.0929,-3.30758 -8.53007,-3.30758 -4.52615,0 -9.05231,3.13349 -9.05231,7.83373 0,2.26308 1.74083,7.13741 1.74083,49.78774 0,10.2709 -0.17408,19.67138 -0.17408,25.93837 -12.01173,-20.01955 -36.20927,-63.01805 -41.08359,-77.29285 -2.26308,-5.91882 -8.87823,-5.91882 -10.79315,-6.09291 -0.34816,0 -1.04449,0 -1.91491,0 -11.14131,0 -11.83764,7.48557 -11.83764,9.57457 0,0.17408 0.34816,5.74474 0.34816,21.06404 0,29.07186 -1.21858,74.33344 -1.21858,75.02977 0,3.13349 0.34817,5.74474 1.39267,7.83373 1.21858,2.089 4.35207,3.1335 7.1374,3.1335 4.87432,0 9.40048,-3.1335 9.40048,-9.40048 0,-0.17409 0,-0.52225 0,-0.69634 0,-0.69633 1.0445,-45.60974 1.0445,-58.84005 z m 160.94832,68.76278 c 6.61515,0 7.65965,-6.26698 7.65965,-9.40048 v 0 c -0.52225,-7.1374 -5.57066,-8.35598 -8.87823,-8.35598 -0.17409,0 -0.17409,0 -0.17409,0 -17.75646,0 -18.62688,0 -24.02345,0 0.17408,-12.35989 1.0445,-21.41221 1.0445,-35.33885 0,-9.40048 -0.34817,-14.10072 -0.34817,-24.71978 0,-5.39658 0,-11.83765 0.34817,-21.58629 6.44107,0.34816 16.71197,0.87041 21.41221,1.56674 0.52225,0 1.04449,0.17409 1.74083,0.17409 6.0929,0 8.53006,-5.74474 8.53006,-9.74865 0,0 0,0 0,0 v -0.17409 c -0.52225,-6.61515 -6.26698,-8.00781 -9.40048,-8.1819 -10.79314,-1.21858 -23.32712,-1.74083 -39.34275,-1.74083 -7.48557,0 -16.01564,0.17409 -25.41612,0.52225 -9.92273,0.34817 -10.2709,8.00782 -10.2709,8.87824 0,5.39657 3.82983,9.05231 9.92273,9.05231 0.87042,0 3.48166,-0.34816 11.14131,-0.34816 3.48166,0 7.13741,0.17408 10.96723,0.17408 0,0.17408 -0.52225,10.27089 -0.52225,12.53397 0,8.70415 0.34817,31.85719 0.34817,32.72761 0,14.79705 0,15.14522 -1.0445,37.07967 -9.05231,0.34817 -16.01563,0.52225 -21.93446,0.69634 -9.57456,0.34816 -10.09681,6.96332 -10.09681,8.53006 0,0.17409 0,0.34817 0,0.34817 0,6.96332 7.65965,7.65965 10.44498,7.65965 0.69633,0 40.73542,-1.21858 52.74715,-1.21858 11.31539,0 13.2303,0.87041 15.14522,0.87041 z m 111.50874,-4.70024 c 0,-2.95941 -1.21858,-6.26698 -3.82983,-10.27089 -2.95941,-4.178 -8.35598,-12.88214 -14.2748,-22.80488 -4.35208,-6.78923 -8.87824,-14.2748 -13.40439,-20.88995 0.17408,-0.34817 11.66356,-17.93055 14.79705,-22.80488 13.40439,-22.4567 14.97114,-25.06795 14.97114,-28.20144 0,-2.95941 -3.1335,-7.65965 -9.40048,-7.65965 -3.1335,0 -6.44107,1.56674 -8.87824,4.52615 -6.0929,8.35599 -17.58238,28.37553 -22.28262,36.55743 -10.27089,-16.01563 -16.3638,-25.5902 -20.54179,-31.50902 -5.22249,-6.96332 -7.48557,-8.87823 -11.14131,-8.87823 -3.1335,0 -11.48948,0.69633 -11.48948,7.83373 0,3.30758 1.21858,5.22249 8.1819,16.53789 1.91491,2.78533 6.61515,9.74865 22.10854,32.03127 -8.35598,13.23031 -22.10854,33.59802 -24.37162,36.90559 -6.0929,9.74865 -8.35598,13.57848 -8.35598,17.23422 0,2.95941 3.65574,8.1819 9.74865,8.1819 2.78532,0 5.74473,-1.39266 8.00781,-4.00391 1.39267,-1.56675 4.17799,-6.44107 8.00782,-13.05622 5.39657,-8.70415 12.35989,-20.19363 17.93055,-28.37553 1.56675,2.61124 3.30758,5.39657 5.22249,8.35598 14.97114,25.93837 21.06404,36.73151 29.24594,36.73151 3.65574,0 9.74865,-1.91491 9.74865,-6.44107 z"
     id="text1"
     aria-label="SNIX" />
</svg>
